<mxfile host="app.diagrams.net" modified="2023-05-11T18:14:18.370Z" agent="Mozilla/5.0 (Windows NT 10.0; Win64; x64) AppleWebKit/537.36 (KHTML, like Gecko) Chrome/113.0.0.0 Safari/537.36" etag="Mp6Nbxa13NVBWI4uGdkM" version="21.2.9" type="device">
  <diagram name="1 oldal" id="imzwy65eMQqrlj9fq77T">
    <mxGraphModel dx="1434" dy="707" grid="1" gridSize="10" guides="1" tooltips="1" connect="1" arrows="1" fold="1" page="1" pageScale="1" pageWidth="827" pageHeight="1169" math="0" shadow="0">
      <root>
        <mxCell id="0" />
        <mxCell id="1" parent="0" />
        <mxCell id="qkFD2KtRBlm5CjUdYDnP-3" value="JatekTer" style="swimlane;fontStyle=1;align=center;verticalAlign=top;childLayout=stackLayout;horizontal=1;startSize=26;horizontalStack=0;resizeParent=1;resizeParentMax=0;resizeLast=0;collapsible=1;marginBottom=0;whiteSpace=wrap;html=1;" parent="1" vertex="1">
          <mxGeometry x="70" y="20" width="690" height="286" as="geometry" />
        </mxCell>
        <mxCell id="qkFD2KtRBlm5CjUdYDnP-11" value="- kartyaLista: string[ ] (itt tároljuk a képek elérési útját )" style="text;strokeColor=none;fillColor=none;align=left;verticalAlign=top;spacingLeft=4;spacingRight=4;overflow=hidden;rotatable=0;points=[[0,0.5],[1,0.5]];portConstraint=eastwest;whiteSpace=wrap;html=1;" parent="qkFD2KtRBlm5CjUdYDnP-3" vertex="1">
          <mxGeometry y="26" width="690" height="24" as="geometry" />
        </mxCell>
        <mxCell id="srEtwP8wqapjBjtcHSmw-4" value="- kivalasztottKartyaLista: Kartya[ ] (itt tároljuk a kiválasztott képeket )" style="text;strokeColor=none;fillColor=none;align=left;verticalAlign=top;spacingLeft=4;spacingRight=4;overflow=hidden;rotatable=0;points=[[0,0.5],[1,0.5]];portConstraint=eastwest;whiteSpace=wrap;html=1;" vertex="1" parent="qkFD2KtRBlm5CjUdYDnP-3">
          <mxGeometry y="50" width="690" height="30" as="geometry" />
        </mxCell>
        <mxCell id="qkFD2KtRBlm5CjUdYDnP-5" value="" style="line;strokeWidth=1;fillColor=none;align=left;verticalAlign=middle;spacingTop=-1;spacingLeft=3;spacingRight=3;rotatable=0;labelPosition=right;points=[];portConstraint=eastwest;strokeColor=inherit;" parent="qkFD2KtRBlm5CjUdYDnP-3" vertex="1">
          <mxGeometry y="80" width="690" height="8" as="geometry" />
        </mxCell>
        <mxCell id="qkFD2KtRBlm5CjUdYDnP-6" value="+ constructor(kartyaLista)" style="text;strokeColor=none;fillColor=none;align=left;verticalAlign=top;spacingLeft=4;spacingRight=4;overflow=hidden;rotatable=0;points=[[0,0.5],[1,0.5]];portConstraint=eastwest;whiteSpace=wrap;html=1;" parent="qkFD2KtRBlm5CjUdYDnP-3" vertex="1">
          <mxGeometry y="88" width="690" height="26" as="geometry" />
        </mxCell>
        <mxCell id="qkFD2KtRBlm5CjUdYDnP-15" value="- init() :void - új játékteret hoz létre, alapértékre állítja az adattagokat. Így tudunk új játékot kezdeni, létrehozza a játékteret" style="text;strokeColor=none;fillColor=none;align=left;verticalAlign=top;spacingLeft=4;spacingRight=4;overflow=hidden;rotatable=0;points=[[0,0.5],[1,0.5]];portConstraint=eastwest;whiteSpace=wrap;html=1;" parent="qkFD2KtRBlm5CjUdYDnP-3" vertex="1">
          <mxGeometry y="114" width="690" height="26" as="geometry" />
        </mxCell>
        <mxCell id="srEtwP8wqapjBjtcHSmw-6" value="- kever() :void - véletlen sorrendbe állítja a kártyaLista elemeit" style="text;strokeColor=none;fillColor=none;align=left;verticalAlign=top;spacingLeft=4;spacingRight=4;overflow=hidden;rotatable=0;points=[[0,0.5],[1,0.5]];portConstraint=eastwest;whiteSpace=wrap;html=1;" vertex="1" parent="qkFD2KtRBlm5CjUdYDnP-3">
          <mxGeometry y="140" width="690" height="26" as="geometry" />
        </mxCell>
        <mxCell id="qkFD2KtRBlm5CjUdYDnP-21" value="- ellenorzes() : void - megnézi, hogy a két kiválasztott kártya elgyforma -e ? ha igen, akkor nem fordítja vissza, ha nem , akkor 1000sec után visszafordítja&amp;nbsp;" style="text;strokeColor=none;fillColor=none;align=left;verticalAlign=top;spacingLeft=4;spacingRight=4;overflow=hidden;rotatable=0;points=[[0,0.5],[1,0.5]];portConstraint=eastwest;whiteSpace=wrap;html=1;" parent="qkFD2KtRBlm5CjUdYDnP-3" vertex="1">
          <mxGeometry y="166" width="690" height="40" as="geometry" />
        </mxCell>
        <mxCell id="srEtwP8wqapjBjtcHSmw-7" value="- TriggerBlocked():void - létrehoz egy új seseményt, gameBlocked néven, mely feladata, hogy a kártyák kattintását blokkolja" style="text;strokeColor=none;fillColor=none;align=left;verticalAlign=top;spacingLeft=4;spacingRight=4;overflow=hidden;rotatable=0;points=[[0,0.5],[1,0.5]];portConstraint=eastwest;whiteSpace=wrap;html=1;" vertex="1" parent="qkFD2KtRBlm5CjUdYDnP-3">
          <mxGeometry y="206" width="690" height="40" as="geometry" />
        </mxCell>
        <mxCell id="srEtwP8wqapjBjtcHSmw-8" value="- TriggerUnBlocked():void - létrehoz egy új seseményt, gameUnBlocked néven, mely feladata, hogy a kártyák kattintásának blokkolását feloldja" style="text;strokeColor=none;fillColor=none;align=left;verticalAlign=top;spacingLeft=4;spacingRight=4;overflow=hidden;rotatable=0;points=[[0,0.5],[1,0.5]];portConstraint=eastwest;whiteSpace=wrap;html=1;" vertex="1" parent="qkFD2KtRBlm5CjUdYDnP-3">
          <mxGeometry y="246" width="690" height="40" as="geometry" />
        </mxCell>
        <mxCell id="qkFD2KtRBlm5CjUdYDnP-7" value="Kartya" style="swimlane;fontStyle=1;align=center;verticalAlign=top;childLayout=stackLayout;horizontal=1;startSize=26;horizontalStack=0;resizeParent=1;resizeParentMax=0;resizeLast=0;collapsible=1;marginBottom=0;whiteSpace=wrap;html=1;" parent="1" vertex="1">
          <mxGeometry x="70" y="360" width="620" height="306" as="geometry" />
        </mxCell>
        <mxCell id="qkFD2KtRBlm5CjUdYDnP-8" value="- fajlnev: string- Itt tároljuk, hogy mi lenne a kártya képének elérési útja." style="text;strokeColor=none;fillColor=none;align=left;verticalAlign=top;spacingLeft=4;spacingRight=4;overflow=hidden;rotatable=0;points=[[0,0.5],[1,0.5]];portConstraint=eastwest;whiteSpace=wrap;html=1;" parent="qkFD2KtRBlm5CjUdYDnP-7" vertex="1">
          <mxGeometry y="26" width="620" height="26" as="geometry" />
        </mxCell>
        <mxCell id="srEtwP8wqapjBjtcHSmw-3" value="- allapot : boolean&amp;nbsp; - Itt tároljuk, hogy az adott kártya fel van- e fordítva, vagy nem: false - a hátlap látszik." style="text;strokeColor=none;fillColor=none;align=left;verticalAlign=top;spacingLeft=4;spacingRight=4;overflow=hidden;rotatable=0;points=[[0,0.5],[1,0.5]];portConstraint=eastwest;whiteSpace=wrap;html=1;" vertex="1" parent="qkFD2KtRBlm5CjUdYDnP-7">
          <mxGeometry y="52" width="620" height="26" as="geometry" />
        </mxCell>
        <mxCell id="srEtwP8wqapjBjtcHSmw-1" value="- blokkkolt: boolean&amp;nbsp; - Itt tároljuk, hogy rá tudunk-e kattintani a kártyára, vagy éppen nem kattintható (mert két kártya fel van fordítva." style="text;strokeColor=none;fillColor=none;align=left;verticalAlign=top;spacingLeft=4;spacingRight=4;overflow=hidden;rotatable=0;points=[[0,0.5],[1,0.5]];portConstraint=eastwest;whiteSpace=wrap;html=1;" vertex="1" parent="qkFD2KtRBlm5CjUdYDnP-7">
          <mxGeometry y="78" width="620" height="38" as="geometry" />
        </mxCell>
        <mxCell id="qkFD2KtRBlm5CjUdYDnP-13" value="- divElem: html elem - ez tárolja a képet" style="text;strokeColor=none;fillColor=none;align=left;verticalAlign=top;spacingLeft=4;spacingRight=4;overflow=hidden;rotatable=0;points=[[0,0.5],[1,0.5]];portConstraint=eastwest;whiteSpace=wrap;html=1;" parent="qkFD2KtRBlm5CjUdYDnP-7" vertex="1">
          <mxGeometry y="116" width="620" height="26" as="geometry" />
        </mxCell>
        <mxCell id="srEtwP8wqapjBjtcHSmw-2" value="- imgElem: html elem - ide töltődik be a kép src attributumába a kép elérési útja" style="text;strokeColor=none;fillColor=none;align=left;verticalAlign=top;spacingLeft=4;spacingRight=4;overflow=hidden;rotatable=0;points=[[0,0.5],[1,0.5]];portConstraint=eastwest;whiteSpace=wrap;html=1;" vertex="1" parent="qkFD2KtRBlm5CjUdYDnP-7">
          <mxGeometry y="142" width="620" height="26" as="geometry" />
        </mxCell>
        <mxCell id="qkFD2KtRBlm5CjUdYDnP-9" value="" style="line;strokeWidth=1;fillColor=none;align=left;verticalAlign=middle;spacingTop=-1;spacingLeft=3;spacingRight=3;rotatable=0;labelPosition=right;points=[];portConstraint=eastwest;strokeColor=inherit;" parent="qkFD2KtRBlm5CjUdYDnP-7" vertex="1">
          <mxGeometry y="168" width="620" height="8" as="geometry" />
        </mxCell>
        <mxCell id="qkFD2KtRBlm5CjUdYDnP-10" value="+ constructor(id, allapot, szuloElem)" style="text;strokeColor=none;fillColor=none;align=left;verticalAlign=top;spacingLeft=4;spacingRight=4;overflow=hidden;rotatable=0;points=[[0,0.5],[1,0.5]];portConstraint=eastwest;whiteSpace=wrap;html=1;" parent="qkFD2KtRBlm5CjUdYDnP-7" vertex="1">
          <mxGeometry y="176" width="620" height="26" as="geometry" />
        </mxCell>
        <mxCell id="qkFD2KtRBlm5CjUdYDnP-17" value="+ setAllapot(): void&amp;nbsp; - a kártya állapotát az ellenkezőjére változtatja, meghívja a setLap metódust" style="text;strokeColor=none;fillColor=none;align=left;verticalAlign=top;spacingLeft=4;spacingRight=4;overflow=hidden;rotatable=0;points=[[0,0.5],[1,0.5]];portConstraint=eastwest;whiteSpace=wrap;html=1;" parent="qkFD2KtRBlm5CjUdYDnP-7" vertex="1">
          <mxGeometry y="202" width="620" height="26" as="geometry" />
        </mxCell>
        <mxCell id="srEtwP8wqapjBjtcHSmw-5" value="+ getFajlnev(): void&amp;nbsp; - visszaadja a fajnevet" style="text;strokeColor=none;fillColor=none;align=left;verticalAlign=top;spacingLeft=4;spacingRight=4;overflow=hidden;rotatable=0;points=[[0,0.5],[1,0.5]];portConstraint=eastwest;whiteSpace=wrap;html=1;" vertex="1" parent="qkFD2KtRBlm5CjUdYDnP-7">
          <mxGeometry y="228" width="620" height="26" as="geometry" />
        </mxCell>
        <mxCell id="qkFD2KtRBlm5CjUdYDnP-18" value="- setLap(): void - az elem állapotától függően módosítja a img tag src attributumat.&amp;nbsp;" style="text;strokeColor=none;fillColor=none;align=left;verticalAlign=top;spacingLeft=4;spacingRight=4;overflow=hidden;rotatable=0;points=[[0,0.5],[1,0.5]];portConstraint=eastwest;whiteSpace=wrap;html=1;" parent="qkFD2KtRBlm5CjUdYDnP-7" vertex="1">
          <mxGeometry y="254" width="620" height="26" as="geometry" />
        </mxCell>
        <mxCell id="qkFD2KtRBlm5CjUdYDnP-22" value="- kattintasTrigger():void - létrehoz egy &#39;fordit&quot; nevű saját eseményt" style="text;strokeColor=none;fillColor=none;align=left;verticalAlign=top;spacingLeft=4;spacingRight=4;overflow=hidden;rotatable=0;points=[[0,0.5],[1,0.5]];portConstraint=eastwest;whiteSpace=wrap;html=1;" parent="qkFD2KtRBlm5CjUdYDnP-7" vertex="1">
          <mxGeometry y="280" width="620" height="26" as="geometry" />
        </mxCell>
      </root>
    </mxGraphModel>
  </diagram>
</mxfile>
